<svg xmlns="http://www.w3.org/2000/svg" viewBox="0 0 328.57 415.76"><defs><style>.cls-1{fill:#0e141f;}.cls-2{fill:#9bf2cb;}.cls-3{fill:#df616f;}.cls-4{fill:#65ccef;}.cls-5{fill:#f1f1f1;}</style></defs><g id="Layer_2" data-name="Layer 2"><g id="Layer_1-2" data-name="Layer 1"><rect class="cls-1" x="122.66" y="109.06" width="78.81" height="37.38"/><rect class="cls-2" x="145.66" y="99.06" width="78.81" height="37.38"/><rect class="cls-1" x="122.71" y="156.07" width="131.66" height="37.38"/><rect class="cls-3" x="145.71" y="146.07" width="131.66" height="37.38"/><path class="cls-1" d="M122.71,203.07v36.06A40,40,0,0,1,184,240.45H288.3V203.07Z"/><path class="cls-4" d="M145.71,193.07v36.06A40,40,0,0,1,207,230.45H311.3V193.07Z"/><path class="cls-1" d="M191.51,250.17a45.15,45.15,0,0,1,2.73,15.88,39.63,39.63,0,0,1-12.45,29.45,41.82,41.82,0,0,1-30.33,12.16q-41.9,0-41.89-58.3V10H0V253.46q0,67.1,35.16,109.27,20.21,24.33,51.41,38.68a151.78,151.78,0,0,0,64,14.35q65.32,0,110.15-43.94t44.83-108.11q0-6.88-.55-13.54Z"/><path class="cls-5" d="M214.51,240.17a45.15,45.15,0,0,1,2.73,15.88,39.63,39.63,0,0,1-12.45,29.45,41.82,41.82,0,0,1-30.33,12.16q-41.9,0-41.89-58.3V0H23V243.46q0,67.1,35.16,109.27,20.2,24.33,51.41,38.68a151.78,151.78,0,0,0,64,14.35q65.32,0,110.15-43.94t44.83-108.11q0-6.89-.55-13.54Z"/></g></g></svg>
